<svg width="24" height="24" viewBox="0 0 24 24" fill="none" xmlns="http://www.w3.org/2000/svg">
<path d="M9.73854 19V15.9477C9.73854 14.872 10.6106 14 11.6862 14C12.7619 14 13.6339 14.872 13.6339 15.9477V19C13.6339 19.55 14.0722 20 14.6078 20H17.5293C18.0649 20 18.5032 19.55 18.5032 19V13.6556C18.5032 12.7412 19.2444 12 20.1587 12C20.6067 12 20.8209 11.43 20.4801 11.13L12.3387 3.60003C11.9687 3.26003 11.4038 3.26003 11.0338 3.60003L2.8924 11.13C2.5613 11.43 2.7658 12 3.21377 12C4.1281 12 4.86931 12.7412 4.86931 13.6556V19C4.86931 19.55 5.30754 20 5.84316 20H8.7647C9.30031 20 9.73854 19.55 9.73854 19Z" fill="#8F8F8F"/>
</svg>
