<?xml version="1.0" standalone="no"?>
<!DOCTYPE svg PUBLIC "-//W3C//DTD SVG 20010904//EN"
 "http://www.w3.org/TR/2001/REC-SVG-20010904/DTD/svg10.dtd">
<svg version="1.0" xmlns="http://www.w3.org/2000/svg"
 width="512.000000pt" height="512.000000pt" viewBox="0 0 512.000000 512.000000"
 preserveAspectRatio="xMidYMid meet">

<g transform="translate(0.000000,512.000000) scale(0.100000,-0.100000)"
fill="#000000" stroke="none">
<path d="M1430 4465 l0 -275 1125 0 1125 0 0 275 0 275 -1125 0 -1125 0 0
-275z"/>
<path d="M113 3944 c-68 -34 -63 97 -63 -1779 0 -1881 -5 -1746 65 -1779 30
-14 270 -16 2450 -16 2180 0 2420 2 2450 16 70 33 65 -102 65 1776 0 1623 -1
1695 -18 1728 -10 19 -34 43 -53 52 -32 17 -169 18 -2449 18 -2173 0 -2418 -2
-2447 -16z m1997 -1774 l0 -1190 -835 0 -835 0 0 1190 0 1190 835 0 835 0 0
-1190z m2570 0 l0 -1190 -835 0 -835 0 0 1190 0 1190 835 0 835 0 0 -1190z
m-2005 470 l0 -165 -115 0 -115 0 -3 155 c-1 85 0 160 3 167 3 11 31 13 117
11 l113 -3 0 -165z m3 -947 l2 -163 -120 0 -120 0 0 158 c0 87 3 162 7 166 4
3 57 5 117 4 l111 -3 3 -162z"/>
<path d="M680 2160 l0 -950 600 0 600 0 0 950 0 950 -600 0 -600 0 0 -950z
m747 658 c61 -15 127 -78 142 -135 8 -30 11 -192 9 -537 l-3 -494 -30 -44
c-17 -23 -51 -54 -75 -68 -42 -23 -54 -25 -190 -25 -136 0 -148 2 -190 25 -24
14 -58 45 -75 68 l-30 44 -3 494 c-2 345 1 507 9 537 14 53 82 120 135 135 54
14 246 14 301 0z"/>
<path d="M1171 2636 c-8 -9 -10 -142 -9 -472 l3 -459 115 0 115 0 3 459 c1
330 -1 463 -9 472 -8 10 -39 14 -109 14 -70 0 -101 -4 -109 -14z"/>
<path d="M3240 2160 l0 -950 600 0 600 0 0 950 0 950 -600 0 -600 0 0 -950z
m747 658 c61 -15 127 -78 142 -135 8 -30 11 -192 9 -537 l-3 -494 -30 -44
c-17 -23 -51 -54 -75 -68 -42 -23 -54 -25 -190 -25 -136 0 -148 2 -190 25 -24
14 -58 45 -75 68 l-30 44 -3 494 c-2 345 1 507 9 537 14 53 82 120 135 135 54
14 246 14 301 0z"/>
<path d="M3731 2636 c-8 -9 -10 -142 -9 -472 l3 -459 115 0 115 0 3 459 c1
330 -1 463 -9 472 -8 10 -39 14 -109 14 -70 0 -101 -4 -109 -14z"/>
</g>
</svg>
