<?xml version="1.0" standalone="no"?>
<!DOCTYPE svg PUBLIC "-//W3C//DTD SVG 20010904//EN"
 "http://www.w3.org/TR/2001/REC-SVG-20010904/DTD/svg10.dtd">
<svg version="1.0" xmlns="http://www.w3.org/2000/svg"
 width="266.000000pt" height="195.000000pt" viewBox="0 0 266.000000 195.000000"
 preserveAspectRatio="xMidYMid meet">

<g transform="translate(0.000000,195.000000) scale(0.100000,-0.100000)"
fill="#000000" stroke="none">
<path d="M942 1868 c-11 -15 -712 -1715 -712 -1729 0 -5 145 -8 347 -7 l347 3
37 90 c21 50 39 93 39 98 0 4 -103 7 -230 7 -186 0 -230 3 -230 13 0 12 129
330 453 1117 l85 205 121 3 c102 2 121 0 121 -12 0 -9 -43 -120 -96 -248 -237
-574 -324 -790 -324 -804 0 -12 18 -14 107 -12 l107 3 41 103 c31 79 45 104
62 108 12 3 70 2 129 -3 l107 -8 127 -310 c69 -171 132 -320 139 -332 l12 -23
344 0 c190 0 345 2 345 4 0 3 -58 146 -129 318 -149 361 -408 995 -443 1083
-13 33 -28 59 -34 58 -12 -3 -103 -221 -103 -249 -1 -12 12 -53 28 -90 104
-244 371 -901 371 -911 0 -11 -26 -13 -122 -11 l-123 3 -92 225 c-51 124 -114
276 -139 338 l-46 112 -149 0 c-85 0 -149 4 -149 9 0 5 24 67 54 138 135 320
286 695 286 708 0 13 -47 15 -339 15 -259 0 -341 -3 -349 -12z"/>
</g>
</svg>
