<svg width="17" height="20" viewBox="0 0 17 20" fill="none" xmlns="http://www.w3.org/2000/svg">
<path d="M8.5 9.97517C11.1828 9.97517 13.3571 7.74245 13.3571 4.98759C13.3571 2.23272 11.1828 0 8.5 0C5.81719 0 3.64286 2.23272 3.64286 4.98759C3.64286 7.74245 5.81719 9.97517 8.5 9.97517ZM11.9 11.2221C11.4827 11.2221 11.0739 11.3236 10.6811 11.4646C9.99771 11.7101 9.26363 11.8455 8.5 11.8455C7.73587 11.8455 7.00361 11.71 6.31909 11.4642C5.9263 11.3231 5.51734 11.2221 5.1 11.2221C2.28437 11.2221 0 13.5678 0 16.459V18.08C0 19.1126 0.815848 19.9503 1.82143 19.9503H15.1786C16.1842 19.9503 17 19.1126 17 18.08V16.459C17 13.5678 14.7156 11.2221 11.9 11.2221Z" fill="#6D6E70"/>
</svg>
