<?xml version="1.0" standalone="no"?>
<!DOCTYPE svg PUBLIC "-//W3C//DTD SVG 20010904//EN"
 "http://www.w3.org/TR/2001/REC-SVG-20010904/DTD/svg10.dtd">
<svg version="1.0" xmlns="http://www.w3.org/2000/svg"
 width="512.000000pt" height="512.000000pt" viewBox="0 0 512.000000 512.000000"
 preserveAspectRatio="xMidYMid meet">

<g transform="translate(0.000000,512.000000) scale(0.100000,-0.100000)"
fill="#000000" stroke="none">
<path d="M700 4470 l0 -200 -83 0 c-174 0 -316 -58 -437 -180 -87 -86 -131
-163 -160 -276 -19 -75 -20 -116 -20 -1454 0 -1338 1 -1379 20 -1454 29 -113
73 -190 160 -276 86 -87 163 -131 276 -160 76 -20 118 -20 2104 -20 1986 0
2028 0 2104 20 113 29 190 73 276 160 87 86 131 163 160 276 19 75 20 116 20
1454 0 1338 -1 1379 -20 1454 -29 113 -73 190 -160 276 -121 122 -263 180
-437 180 l-83 0 0 200 0 200 -200 0 -200 0 0 -200 0 -200 -285 0 -285 0 0 200
0 200 -200 0 -200 0 0 -200 0 -200 -490 0 -490 0 0 200 0 200 -200 0 -200 0 0
-200 0 -200 -285 0 -285 0 0 200 0 200 -200 0 -200 0 0 -200z m1660 -2110 l0
-1510 -913 2 -913 3 -41 27 c-22 15 -51 44 -64 65 l-24 38 -3 1353 c-1 936 1
1366 8 1393 13 49 76 115 122 128 20 5 397 10 931 10 l897 1 0 -1510z m2263
1481 c21 -13 50 -42 65 -64 l27 -41 0 -1376 0 -1376 -27 -41 c-15 -22 -44 -51
-65 -64 l-38 -24 -912 -3 -913 -2 0 1510 0 1510 913 -2 912 -3 38 -24z"/>
<path d="M870 3130 l0 -200 200 0 200 0 0 -770 0 -770 200 0 200 0 0 970 0
970 -400 0 -400 0 0 -200z"/>
<path d="M3582 3360 c-109 -29 -187 -74 -272 -160 -87 -86 -131 -163 -160
-276 -19 -72 -20 -112 -20 -564 0 -452 1 -492 20 -564 29 -113 73 -190 160
-276 86 -87 163 -131 276 -160 141 -36 294 -18 427 52 81 42 203 164 245 245
69 132 72 160 72 703 0 543 -3 571 -72 703 -42 81 -164 203 -245 245 -132 69
-291 88 -431 52z m258 -414 c21 -13 48 -42 61 -63 l24 -38 0 -485 0 -485 -24
-38 c-13 -21 -42 -50 -64 -65 -34 -23 -52 -27 -107 -27 -55 0 -73 4 -107 27
-22 15 -51 44 -64 65 l-24 38 -3 463 c-2 311 1 475 8 503 13 48 76 114 122
128 53 16 135 6 178 -23z"/>
</g>
</svg>
