<?xml version="1.0" standalone="no"?>
<!DOCTYPE svg PUBLIC "-//W3C//DTD SVG 20010904//EN"
 "http://www.w3.org/TR/2001/REC-SVG-20010904/DTD/svg10.dtd">
<svg version="1.0" xmlns="http://www.w3.org/2000/svg"
 width="920.000000pt" height="512.000000pt" viewBox="0 0 920.000000 512.000000"
 preserveAspectRatio="xMidYMid meet">

<g transform="translate(0.000000,512.000000) scale(0.100000,-0.100000)"
fill="#000000" stroke="none">
<path d="M2240 4710 l0 -100 720 0 720 0 0 -615 0 -615 -720 0 -721 0 3 -102
3 -103 818 -3 817 -2 0 360 0 360 720 0 720 0 0 -1330 0 -1330 -720 0 -720 0
0 360 0 360 -817 -2 -818 -3 -3 -102 -3 -103 721 0 720 0 0 -615 0 -615 -720
0 -720 0 0 -100 0 -100 820 0 820 0 0 355 0 355 820 0 820 0 0 720 0 720 720
0 720 0 0 100 0 100 -720 0 -720 0 0 720 0 720 -820 0 -820 0 0 355 0 355
-820 0 -820 0 0 -100z"/>
</g>
</svg>
