<?xml version="1.0" standalone="no"?>
<!DOCTYPE svg PUBLIC "-//W3C//DTD SVG 20010904//EN"
 "http://www.w3.org/TR/2001/REC-SVG-20010904/DTD/svg10.dtd">
<svg version="1.0" xmlns="http://www.w3.org/2000/svg"
 width="204.000000pt" height="192.000000pt" viewBox="0 0 204.000000 192.000000"
 preserveAspectRatio="xMidYMid meet">

<g transform="translate(0.000000,192.000000) scale(0.100000,-0.100000)"
fill="#000000" stroke="none">
<path d="M783 1788 c-9 -12 25 -263 41 -304 4 -11 43 -14 195 -14 104 0 192 4
195 8 7 12 46 249 46 282 0 51 -20 46 -83 -19 -50 -52 -63 -60 -71 -48 -6 8
-26 35 -43 61 -18 25 -37 46 -43 46 -6 0 -25 -21 -43 -46 -17 -26 -37 -53 -43
-61 -9 -13 -20 -5 -69 46 -62 65 -67 68 -82 49z m271 -114 c51 -81 53 -81 104
-32 31 30 43 37 39 23 -3 -11 -8 -40 -12 -65 -12 -87 1 -80 -165 -80 -166 0
-153 -7 -165 80 -4 25 -9 54 -12 65 -4 14 8 7 39 -23 51 -49 53 -49 104 32 16
25 31 46 34 46 3 0 18 -21 34 -46z"/>
<path d="M1002 1388 c-7 -7 -12 -38 -12 -70 l0 -58 -242 -2 -243 -3 -3 -97 -3
-97 -72 -3 -72 -3 -3 -174 c-2 -133 1 -176 10 -183 7 -4 41 -8 76 -8 l62 0 0
-65 0 -64 -102 -3 -103 -3 -3 -92 -3 -93 -67 0 c-40 0 -73 -5 -80 -12 -17 -17
-17 -329 0 -346 17 -17 329 -17 346 0 17 17 17 329 0 346 -7 7 -40 12 -80 12
l-68 0 0 70 0 70 188 -2 187 -3 3 -68 3 -67 -65 0 c-103 0 -96 13 -96 -185 0
-148 2 -174 16 -179 20 -8 308 -8 328 0 14 5 16 31 16 179 0 197 6 185 -90
185 l-59 0 -3 92 -3 93 -107 3 -108 3 0 64 0 65 68 0 c40 0 73 5 80 12 17 17
17 329 0 346 -7 7 -41 12 -80 12 l-69 0 3 73 3 72 465 0 465 0 3 -72 3 -73
-69 0 c-39 0 -73 -5 -80 -12 -17 -17 -17 -329 0 -346 7 -7 40 -12 80 -12 l68
0 0 -65 0 -64 -107 -3 -108 -3 -3 -92 -3 -93 -59 0 c-96 0 -90 12 -90 -185 0
-148 2 -174 16 -179 20 -8 308 -8 328 0 14 5 16 31 16 179 0 198 7 185 -96
185 l-65 0 3 67 3 68 188 3 187 2 0 -70 0 -70 -68 0 c-40 0 -73 -5 -80 -12 -8
-8 -12 -61 -12 -173 0 -112 4 -165 12 -173 8 -8 61 -12 175 -12 150 0 163 1
173 19 15 29 13 324 -2 339 -7 7 -40 12 -80 12 l-67 0 -3 93 -3 92 -102 3
-103 3 0 64 0 65 63 0 c34 0 68 4 75 8 9 7 12 50 10 183 l-3 174 -72 3 -72 3
-3 97 -3 97 -242 3 -243 2 0 58 c0 51 -11 82 -30 82 -3 0 -11 -5 -18 -12z
m-352 -508 l0 -130 -125 0 -125 0 0 125 0 124 123 4 c67 1 123 4 125 5 1 1 2
-56 2 -128z m990 -6 l0 -124 -125 0 -125 0 0 128 0 127 125 -3 125 -3 0 -125z
m-1200 -690 l0 -124 -125 0 -125 0 0 128 0 127 125 -3 125 -3 0 -125z m430 0
l0 -124 -130 0 -130 0 0 123 c0 68 2 126 4 128 2 2 61 3 130 1 l126 -3 0 -125z
m560 0 l0 -124 -130 0 -130 0 0 125 0 124 123 3 c67 2 125 2 130 0 4 -2 7 -59
7 -128z m420 6 l0 -130 -125 0 -125 0 0 125 0 124 123 4 c67 1 123 4 125 5 1
1 2 -56 2 -128z"/>
</g>
</svg>
